<svg width="177" height="54" viewBox="0 0 177 54" xmlns="http://www.w3.org/2000/svg" xmlns:xlink="http://www.w3.org/1999/xlink">
    <title>Cinco</title>
    <g transform="translate(133.403 12.622)">
        <path d="M21.29 41.221c12.198 0 21.346-9.192 21.346-20.527v-.113C42.636 9.246 33.6.167 21.403.167 9.205.167.056 9.36.056 20.694v.113c0 11.335 9.036 20.414 21.234 20.414m.113-9.869c-6.043 0-10.165-4.962-10.165-10.658v-.113c0-5.695 4.01-10.545 10.052-10.545s10.108 4.906 10.108 10.658v.113c0 5.696-4.01 10.545-9.995 10.545" fill="#8CC63E"/>
    </g>
    <path d="M116.887 53.843c8.697 0 13.723-3.779 17.45-8.91l-8.245-5.865c-2.372 2.876-4.8 4.793-8.923 4.793-5.534 0-9.43-4.624-9.43-10.545v-.113c0-5.752 3.896-10.49 9.43-10.49 3.784 0 6.382 1.862 8.64 4.625l8.245-6.372c-3.5-4.794-8.696-8.177-16.772-8.177-11.971 0-20.781 9.023-20.781 20.527v.113c0 11.786 9.092 20.414 20.386 20.414M56.232 53.053h10.843V31.398l16.94 21.655h9.544V13.578H82.717v20.866L66.453 13.578H56.232z" fill="#8CC63E"/>
    <path d="M41.086 53.053H52.04V13.578H41.086zM37.518 10.94V0H5.294l2.647 10.94zM20.386 53.843c8.697 0 13.723-3.779 17.45-8.91l-8.245-5.865c-2.372 2.876-4.8 4.793-8.923 4.793-5.534 0-9.43-4.624-9.43-10.545v-.113c0-5.752 3.896-10.49 9.43-10.49 3.784 0 6.382 1.862 8.64 4.625l8.245-6.372c-3.5-4.794-8.696-8.177-16.772-8.177C8.81 12.789 0 21.812 0 33.316v.113c0 11.786 9.092 20.414 20.386 20.414" fill="#8CC63E"/>
    <path d="M37.518 20.981V.001H26.563v24.637c1.44 1.109 2.7 2.712 2.7 2.712l8.255-6.369z" fill="#40993B"/>
</svg>