<svg width="27" height="39" viewBox="0 0 27 39" xmlns="http://www.w3.org/2000/svg"><g fill="none" fill-rule="evenodd"><path fill="#8CC63E" d="M26.657 7.901v-7.9H3.762l1.88 7.9zM14.485 38.887c6.179 0 9.75-2.73 12.398-6.436l-5.858-4.235c-1.685 2.077-3.41 3.462-6.34 3.462-3.932 0-6.7-3.34-6.7-7.617v-.081c0-4.154 2.768-7.576 6.7-7.576 2.689 0 4.535 1.345 6.14 3.34l5.858-4.602c-2.488-3.462-6.18-5.906-11.917-5.906C6.259 9.236 0 15.753 0 24.061v.082c0 8.512 6.46 14.744 14.485 14.744"/><path d="M26.657 15.153V0h-7.784v17.794c1.024.8 1.92 1.959 1.92 1.959l5.864-4.6z" fill="#40993B"/></g></svg>